<?xml version="1.0" encoding="UTF-8"?>
<svg
    xmlns="http://www.w3.org/2000/svg"
    viewBox="0 0 43.513224 75.7"
    width="43.513222"
    height="75.699997">
  <g
    transform="translate(-126.6,-137.6)"
    fill="#ffffff"
    stroke="#000000"
    stroke-width="1">
    <path
      d="m 169.7,147.3 c 0,11.3 -8.7,20.7 -20,21.4 -0.1,-11.3 8.7,-20.7 20,-21.4 z
         m -21.5,-9.7 c 3.8,4.1 5.6,9.6 4.8,15.2 -0.1,0.1 -0.2,0.2 -0.3,0.3
         -2,2.2 -3.6,4.7 -4.5,7.5 -1,-2.8 -2.6,-5.4 -4.6,-7.5 l -0.5,-0.4
         c -0.1,-0.7 -0.1,-1.5 -0.1,-2.2 0,-4.8 1.9,-9.4 5.2,-12.9 z
         m -15.7,24.5 c -3.8,-3.9 -5.9,-9.2 -5.9,-14.6 11.3,0.6 20.1,9.9
         20.2,21.2 -5.5,-0.3 -10.6,-2.7 -14.3,-6.6 z"/>
    <path
      d="m 169.7,189.8 -0.6,-2.9 h -17.7 v -5.2 h 15.7 l -0.1,-0.3
         c -0.8,-1.5 -1.9,-3 -3.1,-4.2 -3.7,-3.7 -8.9,-5.6 -15.6,-5.5
         -12.6,0.1 -20.1,7 -21.5,19.8 l -0.1,1.2 h 20.1 v 5.2 h -20.2
         v 0.1 l 0.3,5.4 c 0,0.5 0.1,2 0.1,3.8 7.6,1.8 15.2,3.8 22.7,6.1
         6.4,-1.9 13,-3.7 19.9,-5.3 l 0.1,-3.3 c 0,-0.8 0.4,-6.6
         0.4,-8.9 0.1,-2.2 -0.4,-6 -0.4,-6 z"/>
  </g>
</svg>
