<?xml version="1.0" encoding="UTF-8" standalone="no"?>
<!-- Generator: Adobe Illustrator 24.3.0, SVG Export Plug-In . SVG Version: 6.00 Build 0)  -->

<svg
   xmlns:dc="http://purl.org/dc/elements/1.1/"
   xmlns:cc="http://creativecommons.org/ns#"
   xmlns:rdf="http://www.w3.org/1999/02/22-rdf-syntax-ns#"
   xmlns:svg="http://www.w3.org/2000/svg"
   xmlns="http://www.w3.org/2000/svg"
   xmlns:sodipodi="http://sodipodi.sourceforge.net/DTD/sodipodi-0.dtd"
   xmlns:inkscape="http://www.inkscape.org/namespaces/inkscape"
   version="1.1"
   id="Layer_1"
   x="0px"
   y="0px"
   viewBox="0 0 296.7 119.2"
   style="enable-background:new 0 0 296.7 119.2;"
   xml:space="preserve"
   inkscape:version="0.92.3 (2405546, 2018-03-11)"><metadata
   id="metadata33"><rdf:RDF><cc:Work
       rdf:about=""><dc:format>image/svg+xml</dc:format><dc:type
         rdf:resource="http://purl.org/dc/dcmitype/StillImage" /><dc:title></dc:title></cc:Work></rdf:RDF></metadata><defs
   id="defs31" /><sodipodi:namedview
   pagecolor="#ffffff"
   bordercolor="#666666"
   borderopacity="1"
   objecttolerance="10"
   gridtolerance="10"
   guidetolerance="10"
   inkscape:pageopacity="0"
   inkscape:pageshadow="2"
   inkscape:window-width="1169"
   inkscape:window-height="718"
   id="namedview29"
   showgrid="false"
   inkscape:zoom="2.2851364"
   inkscape:cx="118.51397"
   inkscape:cy="50.946254"
   inkscape:window-x="611"
   inkscape:window-y="205"
   inkscape:window-maximized="0"
   inkscape:current-layer="Layer_1" />
<style
   type="text/css"
   id="style2">
	.st0{fill:#036667;}
	.st1{fill:#F6902F;}
</style>
<path
   class="st0"
   d="M1.8,2.1h7.8v50.3H1.8V2.1z"
   id="path4"
   style="fill:#ffffff;fill-opacity:1" />
<path
   class="st0"
   d="M21.1,27.3c0-15,11.5-25.8,25.9-25.8s25.9,10.8,25.9,25.8S61.4,53.1,47.1,53.1S21.1,42.3,21.1,27.3z M64.9,27.3  c0-10.7-7.4-18.8-17.9-18.8s-18,8.1-18,18.8S36.5,46,47.1,46S64.9,38,64.9,27.3z"
   id="path6"
   style="fill:#ffffff;fill-opacity:1" />
<path
   class="st0"
   d="M77.7,2.1h8.2l8.9,26.7c1,2.8,1.9,7.2,1.9,7.2s1.3-4.3,2.4-7.2l11.5-27.3h1l11.5,27.3c0.9,2.3,1.7,4.7,2.4,7.2  c0,0,1-4.4,2-7.2l8.9-26.8h7.6l-17.3,50.8h-1L113.3,23c-0.8-2-1.5-4-2.1-6.1c0,0-1.2,3.7-2.2,6.1L96.2,52.9h-1L77.7,2.1z"
   id="path8"
   style="fill:#ffffff;fill-opacity:1" />
<path
   class="st0"
   d="M163.2,1.6h0.9l22,50.8H178l-2.9-7.1h-23l-2.9,7.1h-7.5L163.2,1.6z M172.3,38.7L166.1,23  c-1-2.4-1.8-4.9-2.5-7.5c-0.7,2.5-1.5,5-2.4,7.5l-6.3,15.7H172.3z"
   id="path10"
   style="fill:#ffffff;fill-opacity:1" />
<path
   class="st1"
   d="M217.9,54.5c9.4,0,17.3-4,22.1-11.4l0.8-1.2l-8.3-5.9l-0.8,1.2c-2.9,4.7-8.1,7.5-13.7,7.3  c-9.5,0-16.4-7.3-16.4-17.3S208.4,10,217.9,10c5.7,0,10.1,2.3,12.9,6.6l0.8,1.3l8.4-6l-0.8-1.2c-4.7-7-11.9-10.6-21.3-10.6  c-15.5,0-27.2,11.7-27.2,27.2S202.3,54.5,217.9,54.5z"
   id="path12" />
<path
   class="st1"
   d="M296.7,27.3C296.7,11.7,285,0,269.4,0S242,11.7,242,27.3s11.8,27.2,27.4,27.2S296.7,42.8,296.7,27.3z   M269.4,9.9c9.5,0,16.4,7.3,16.4,17.3s-6.9,17.3-16.4,17.3s-16.5-7.3-16.5-17.3S259.8,9.9,269.4,9.9z"
   id="path14" />
<path
   class="st1"
   d="M221.8,64.7c-15.6,0-27.4,11.7-27.4,27.2s11.8,27.2,27.4,27.2s27.3-11.7,27.3-27.2S237.4,64.7,221.8,64.7z   M221.8,109.2c-9.6,0-16.5-7.3-16.5-17.3s6.9-17.3,16.5-17.3s16.4,7.3,16.4,17.3S231.4,109.2,221.8,109.2z"
   id="path16" />
<path
   class="st1"
   d="M268.7,65.3h-14.1v53.2h10.7v-12h3.4c14.2,0,23-7.9,23-20.6C291.7,73,283.1,65.3,268.7,65.3z M265.3,75.1h3.1  c8.5,0,12.5,3.4,12.5,10.8s-4,10.8-12.5,10.8h-3.1V75.1z"
   id="path18" />
<path
   class="st0"
   d="M0,66.6h29.5v6.5H7.4v19h20.1v6.6H7.4V114H0V66.6z"
   id="path20"
   style="fill:#ffffff;fill-opacity:1" />
<path
   class="st0"
   d="M34.8,90.3C34.8,76.2,45.7,66,59.2,66s24.4,10.2,24.4,24.3s-10.9,24.3-24.4,24.3S34.8,104.4,34.8,90.3z   M76.1,90.3c0-10.1-7-17.7-16.9-17.7s-16.9,7.6-16.9,17.7s7,17.7,16.9,17.7S76.1,100.4,76.1,90.3z"
   id="path22"
   style="fill:#ffffff;fill-opacity:1" />
<path
   class="st0"
   d="M89.3,90.3c0-14.1,10.9-24.3,24.5-24.3s24.4,10.2,24.4,24.3s-10.9,24.3-24.4,24.3S89.3,104.4,89.3,90.3z   M130.7,90.3c0-10.1-7-17.7-16.9-17.7s-16.9,7.6-16.9,17.7s7,17.7,16.9,17.7S130.7,100.4,130.7,90.3z"
   id="path24"
   style="fill:#ffffff;fill-opacity:1" />
<path
   class="st0"
   d="M146.1,66.6h13c15.2,0,25.3,9.5,25.3,23.7s-10,23.7-25.3,23.7h-13V66.6z M158.6,107.5  c12.3,0,18.1-7.1,18.1-17.2s-5.8-17.2-18.1-17.2h-5.2v34.4L158.6,107.5z"
   id="path26"
   style="fill:#ffffff;fill-opacity:1" />
</svg>
