<?xml version="1.0" encoding="UTF-8" standalone="no"?>
<!-- Generator: Adobe Illustrator 24.3.0, SVG Export Plug-In . SVG Version: 6.00 Build 0)  -->

<svg
   xmlns:dc="http://purl.org/dc/elements/1.1/"
   xmlns:cc="http://creativecommons.org/ns#"
   xmlns:rdf="http://www.w3.org/1999/02/22-rdf-syntax-ns#"
   xmlns:svg="http://www.w3.org/2000/svg"
   xmlns="http://www.w3.org/2000/svg"
   xmlns:sodipodi="http://sodipodi.sourceforge.net/DTD/sodipodi-0.dtd"
   xmlns:inkscape="http://www.inkscape.org/namespaces/inkscape"
   version="1.1"
   id="Layer_1"
   x="0px"
   y="0px"
   viewBox="0 0 300.8 300.8"
   style="enable-background:new 0 0 300.8 300.8;"
   xml:space="preserve"
   sodipodi:docname="Mono Seal Logo Grey Dim.svg"
   inkscape:version="0.92.3 (2405546, 2018-03-11)"><metadata
   id="metadata65"><rdf:RDF><cc:Work
       rdf:about=""><dc:format>image/svg+xml</dc:format><dc:type
         rdf:resource="http://purl.org/dc/dcmitype/StillImage" /><dc:title /></cc:Work></rdf:RDF></metadata><defs
   id="defs63" /><sodipodi:namedview
   pagecolor="#ffffff"
   bordercolor="#666666"
   borderopacity="1"
   objecttolerance="10"
   gridtolerance="10"
   guidetolerance="10"
   inkscape:pageopacity="0"
   inkscape:pageshadow="2"
   inkscape:window-width="1830"
   inkscape:window-height="1051"
   id="namedview61"
   showgrid="false"
   inkscape:zoom="2.2191118"
   inkscape:cx="226.70727"
   inkscape:cy="150.16471"
   inkscape:window-x="-9"
   inkscape:window-y="-9"
   inkscape:window-maximized="1"
   inkscape:current-layer="Layer_1" />
<style
   type="text/css"
   id="style2">
	.st0{fill:#036667;}
	.st1{fill:#F6902F;}
	.st2{fill:none;stroke:#9FCAA8;stroke-width:6.36;stroke-linecap:round;stroke-linejoin:round;}
	.st3{fill:#FFFFFF;}
	.st4{fill:#F7902F;}
	.st5{fill:#C8D459;}
</style>
<path
   class="st0"
   d="M297.4,136.5l-13.5-22.8V87.3c0-8.7-4.6-16.7-12.1-21l-24.4-14L233,28c-4.4-7.4-12.4-12-21.1-11.9l-26.5,0.3  L162.5,3.2c-7.5-4.3-16.7-4.3-24.2,0l-24.4,14.1l-28.2,0.3c-8.6,0.1-16.6,4.8-20.8,12.3l-13,23.1L29,66.4  c-7.5,4.3-12.1,12.3-12.1,21v28.2L3.1,140.1c-4.2,7.5-4.1,16.8,0.3,24.2L16.9,187v26.5c0,8.7,4.6,16.7,12.1,21l24.4,14l14.4,24.2  c4.4,7.4,12.4,12,21.1,11.8l26.5-0.3l22.9,13.2c7.5,4.3,16.7,4.3,24.2,0l24.4-14.1l28.2-0.3c8.6-0.1,16.6-4.8,20.8-12.3l13-23.1  l22.9-13.2c7.5-4.3,12.1-12.3,12.1-21v-28.1l13.8-24.6C301.9,153.2,301.8,144,297.4,136.5z"
   id="path4"
   style="fill:#505050;fill-opacity:1" />
<path
   class="st1"
   d="M149.9,213.7"
   id="path6"
   style="fill:#f0f0f0;fill-opacity:1" />
<path
   class="st2"
   d="M122.8,273"
   id="path8" />
<path
   class="st3"
   d="M44.1,83.2h14.2v51.2H44.1V83.2z"
   id="path10"
   style="fill:#f0f0f0;fill-opacity:1" />
<path
   class="st3"
   d="M67.5,108.9v-0.1c0-14.7,11.8-26.6,27.7-26.6s27.5,11.8,27.5,26.5v0.1c0,14.7-11.9,26.6-27.7,26.6  S67.5,123.6,67.5,108.9z M108.1,108.9v-0.1c0-7.4-5.3-13.8-13.2-13.8S82,101.2,82,108.6v0.1c0,7.4,5.3,13.8,13.1,13.8  S108.1,116.3,108.1,108.9z"
   id="path12"
   style="fill:#f0f0f0;fill-opacity:1" />
<path
   class="st3"
   d="M125.1,83.2h15l8.9,29.6l9.9-29.8h12.2l9.9,29.8l8.9-29.6h14.7l-17.1,51.6h-12.4l-10.3-29.5l-10.2,29.5h-12.4  L125.1,83.2z"
   id="path14"
   style="fill:#f0f0f0;fill-opacity:1" />
<path
   class="st3"
   d="M221.4,82.8h13.7l21.8,51.6h-15.2l-3.7-9.1h-19.8l-3.7,9.1h-14.9L221.4,82.8z M233.8,114.2l-5.7-14.6l-5.8,14.6  H233.8z"
   id="path16"
   style="fill:#f0f0f0;fill-opacity:1" />
<path
   class="st3"
   d="M43.4,146.1h14.2v4.3h-9.3v3h8.4v4.1h-8.4v6.4h-4.9V146.1z"
   id="path18"
   style="fill:#f0f0f0;fill-opacity:1" />
<path
   class="st3"
   d="M59.8,155.1L59.8,155.1c0.2-5.3,4.6-9.5,9.9-9.3c5.1,0.1,9.1,4.2,9.3,9.3v0.1c-0.2,5.3-4.6,9.5-9.9,9.3  C64.1,164.2,60,160.1,59.8,155.1z M74,155.1L74,155.1c0.1-2.6-1.8-4.7-4.4-4.9c-0.1,0-0.1,0-0.2,0c-2.5,0-4.5,2.1-4.5,4.6  c0,0.1,0,0.1,0,0.2v0.1c-0.1,2.6,1.9,4.7,4.4,4.8c0,0,0.1,0,0.1,0c2.5,0,4.6-2,4.6-4.5C74,155.2,74,155.1,74,155.1z"
   id="path20"
   style="fill:#f0f0f0;fill-opacity:1" />
<path
   class="st3"
   d="M81.5,155.1L81.5,155.1c0.2-5.3,4.7-9.4,10-9.2c5,0.2,8.9,4.2,9.2,9.1v0.1c-0.2,5.3-4.7,9.4-10,9.2  C85.7,164,81.7,160,81.5,155.1z M95.6,155.1L95.6,155.1c0.1-2.5-1.9-4.7-4.4-4.8c-0.1,0-0.1,0-0.2,0c-2.5,0-4.5,2.1-4.5,4.6  c0,0.1,0,0.1,0,0.2v0.1c-0.1,2.6,1.9,4.7,4.4,4.8c0,0,0.1,0,0.1,0c2.5,0,4.5-2,4.5-4.6C95.6,155.2,95.6,155.1,95.6,155.1z"
   id="path22"
   style="fill:#f0f0f0;fill-opacity:1" />
<path
   class="st3"
   d="M103.7,146.1h6.9c6.4,0,10.1,3.7,10.1,8.8v0.1c0,5.1-3.7,8.9-10.2,8.9h-6.8V146.1z M110.7,159.5  c2.9,0,4.9-1.6,4.9-4.5l0,0c0-2.9-2-4.5-4.9-4.5h-2v9.1L110.7,159.5z"
   id="path24"
   style="fill:#f0f0f0;fill-opacity:1" />
<path
   class="st3"
   d="M174,155.1L174,155.1c-0.1-5.1,4-9.2,9-9.3c0.1,0,0.2,0,0.4,0c3-0.1,5.8,1.3,7.6,3.7l-3.7,2.9  c-0.9-1.3-2.3-2.1-3.9-2.1c-2.5,0-4.2,2.1-4.2,4.7v0.1c0,2.7,1.8,4.8,4.2,4.8c1.6,0,3.1-0.8,4-2.2l3.7,2.6c-2.9,4.3-8.8,5.3-13,2.4  C175.5,160.9,174,158.1,174,155.1L174,155.1z"
   id="path26"
   style="fill:#f0f0f0;fill-opacity:1" />
<path
   class="st3"
   d="M192.6,155.1L192.6,155.1c0.2-5.3,4.7-9.4,10-9.2c5,0.2,8.9,4.2,9.2,9.1v0.1c-0.2,5.3-4.7,9.4-10,9.2  C196.8,164,192.8,160,192.6,155.1L192.6,155.1z M206.7,155.1L206.7,155.1c0.1-2.5-1.9-4.7-4.4-4.8c-0.1,0-0.1,0-0.2,0  c-2.5,0-4.5,2.1-4.5,4.6c0,0.1,0,0.1,0,0.2v0.1c-0.1,2.6,1.9,4.7,4.4,4.8c0,0,0.1,0,0.1,0c2.5,0,4.5-2,4.5-4.5  C206.7,155.2,206.7,155.1,206.7,155.1z"
   id="path28"
   style="fill:#f0f0f0;fill-opacity:1" />
<path
   class="st3"
   d="M214.1,153.8h6.7v4.2h-6.7V153.8z"
   id="path30"
   style="fill:#f0f0f0;fill-opacity:1" />
<path
   class="st3"
   d="M222.9,155.1L222.9,155.1c0.2-5.3,4.6-9.5,9.9-9.3c5.1,0.1,9.1,4.2,9.3,9.3v0.1c-0.2,5.3-4.6,9.5-9.9,9.3  C227.2,164.2,223.1,160.1,222.9,155.1z M237.1,155.1L237.1,155.1c0.1-2.5-1.9-4.7-4.4-4.8c-0.1,0-0.1,0-0.2,0  c-2.5,0-4.5,2.1-4.5,4.6c0,0.1,0,0.1,0,0.2v0.1c-0.1,2.6,1.9,4.7,4.4,4.8c0,0,0.1,0,0.1,0c2.5,0,4.5-2,4.5-4.5  C237.1,155.2,237.1,155.1,237.1,155.1z"
   id="path32"
   style="fill:#f0f0f0;fill-opacity:1" />
<path
   class="st3"
   d="M245.2,146.1h7.6c4.5,0,7.4,2.3,7.4,6.3l0,0c0,4.2-3.2,6.4-7.7,6.4h-2.4v5.1h-4.9V146.1z M252.5,154.9  c1.8,0,2.8-0.9,2.8-2.3v-0.1c0-1.5-1.1-2.3-2.8-2.3h-2.3v4.7H252.5z"
   id="path34"
   style="fill:#f0f0f0;fill-opacity:1" />
<path
   class="st4"
   d="M151.3,71.8c-1.8,0-3.2-1.4-3.2-3.2V29.1c0-1.8,1.4-3.2,3.2-3.2c1.8,0,3.2,1.4,3.2,3.2v39.5  C154.5,70.4,153,71.8,151.3,71.8z"
   id="path36"
   style="fill:#f0f0f0;fill-opacity:1" />
<path
   class="st4"
   d="M134.1,71.8c-1.4,0-2.7-1-3.1-2.4l-6.4-23.6c-0.5-1.7,0.6-3.4,2.2-3.9c1.7-0.5,3.4,0.6,3.9,2.2l6.4,23.6  c0.5,1.7-0.5,3.4-2.2,3.9c0,0,0,0,0,0C134.6,71.7,134.4,71.8,134.1,71.8z"
   id="path38"
   style="fill:#f0f0f0;fill-opacity:1" />
<path
   class="st4"
   d="M116.6,71.8c-1.1,0-2.1-0.6-2.7-1.5L106,57.8c-0.9-1.5-0.5-3.5,1-4.4c1.5-0.9,3.5-0.5,4.4,1l0,0l8,12.5  c0.9,1.5,0.5,3.4-1,4.4c0,0,0,0,0,0C117.9,71.6,117.2,71.8,116.6,71.8z"
   id="path40"
   style="fill:#f0f0f0;fill-opacity:1" />
<path
   class="st4"
   d="M168.5,71.8c-0.3,0-0.6,0-0.8-0.1c-1.7-0.5-2.7-2.2-2.2-3.9l6.4-23.6c0.5-1.7,2.3-2.6,4-2.1  c1.6,0.5,2.6,2.1,2.2,3.8l-6.4,23.6C171.2,70.8,169.9,71.8,168.5,71.8z"
   id="path42"
   style="fill:#f0f0f0;fill-opacity:1" />
<path
   class="st4"
   d="M186,71.8c-0.6,0-1.2-0.2-1.7-0.5c-1.5-0.9-1.9-2.9-1-4.4c0,0,0,0,0,0l8-12.5c0.9-1.5,2.8-2.1,4.3-1.2  s2.1,2.8,1.2,4.3c-0.1,0.1-0.1,0.2-0.2,0.3l-7.9,12.5C188.1,71.2,187.1,71.8,186,71.8z"
   id="path44"
   style="fill:#f0f0f0;fill-opacity:1" />
<path
   class="st5"
   d="M265.3,77l-0.4-0.4l-0.4-0.3l-0.4-0.3c-1-0.8-2.1-1.6-3.2-2.2l-98.8-57c-2.8-1.6-5.9-2.6-9.1-3  c-0.8-0.1-1.5-0.2-2.3-0.2c-4.2-0.1-8.4,1-12,3.1l-41,23.6C79,49.6,39.9,73.7,39.9,73.7c-7.3,4.2-11.7,12-11.7,20.3v114.2  c0,6.4,2.7,12.6,7.3,17l0.4,0.4l0.4,0.4l0.4,0.3c1,0.8,2.1,1.6,3.2,2.3l98.8,57c2.8,1.6,5.9,2.6,9.1,3c0.8,0.1,1.5,0.2,2.3,0.1  c4.2,0.1,8.4-1,12-3.1l98.8-57c7.3-4.2,11.7-12,11.7-20.3V94C272.6,87.6,270,81.4,265.3,77z M269.4,208.2c0,7.2-3.9,13.9-10.1,17.5  l-98.8,57c-6.3,3.6-14,3.6-20.2,0c0,0-96.7-55.5-99.7-57.6c-2.5-1.9-4.7-4.3-6.4-7c-1.8-3.1-2.7-6.5-2.7-10.1V94.2c0-3,0.7-6,2-8.7  c0-0.1,0-0.3,0.1-0.4c1.8-3.6,4.6-6.6,8.1-8.7c0,0,97-55.8,99.3-57.1c2.3-1.4,4.8-2.3,7.5-2.5c0.7-0.1,1.4-0.1,2.1-0.1  c3.6,0,7,0.9,10.1,2.7l88.1,50.9c5.8,3.8,10.9,5.8,16.2,11.1c2.9,3.6,4.5,8.1,4.5,12.7V208.2L269.4,208.2z"
   id="path46"
   style="fill:#f0f0f0;fill-opacity:1" />
<path
   class="st5"
   d="M169.7,147.3c0,11.3-8.7,20.7-20,21.4C149.6,157.4,158.4,148,169.7,147.3z M148.2,137.6  c3.8,4.1,5.6,9.6,4.8,15.2c-0.1,0.1-0.2,0.2-0.3,0.3c-2,2.2-3.6,4.7-4.5,7.5c-1-2.8-2.6-5.4-4.6-7.5l-0.5-0.4  c-0.1-0.7-0.1-1.5-0.1-2.2C143,145.7,144.9,141.1,148.2,137.6L148.2,137.6z M132.5,162.1c-3.8-3.9-5.9-9.2-5.9-14.6  c11.3,0.6,20.1,9.9,20.2,21.2C141.3,168.4,136.2,166,132.5,162.1z"
   id="path48"
   style="fill:#f0f0f0;fill-opacity:1" />
<path
   class="st4"
   d="M169.7,189.8l-0.6-2.9h-17.7v-5.2h15.7l-0.1-0.3c-0.8-1.5-1.9-3-3.1-4.2c-3.7-3.7-8.9-5.6-15.6-5.5  c-12.6,0.1-20.1,7-21.5,19.8l-0.1,1.2h20.1v5.2h-20.2v0.1l0.3,5.4c0,0.5,0.1,2,0.1,3.8c7.6,1.8,15.2,3.8,22.7,6.1  c6.4-1.9,13-3.7,19.9-5.3l0.1-3.3c0-0.8,0.4-6.6,0.4-8.9C170.2,193.6,169.7,189.8,169.7,189.8z"
   id="path50"
   style="fill:#f0f0f0;fill-opacity:1" />
<path
   class="st5"
   d="M244.3,222.3c-47.2,0.3-93.9,10.7-136.8,30.4l6.8,3.9c31.2-13.9,74.3-26.3,120.7-28l11-6.4L244.3,222.3z"
   id="path52"
   style="fill:#f0f0f0;fill-opacity:1" />
<path
   class="st5"
   d="M131.9,266.8c22.8-9.1,46.5-15.6,70.7-19.4l14-8.1c-31.4,3.6-62.2,11.5-91.5,23.6L131.9,266.8z"
   id="path54"
   style="fill:#f0f0f0;fill-opacity:1" />
<path
   class="st5"
   d="M158.3,272.9l18.3-10.5c-11.5,3-22.8,6.5-33.9,10.7C147.6,275.7,153.5,275.7,158.3,272.9z"
   id="path56"
   style="fill:#f0f0f0;fill-opacity:1" />
<path
   class="st5"
   d="M253.8,205.4c-4.1,0-13.2,0-14.5,0c-30.2,0.6-60.1,5.3-89,14.1c-30.7-9.5-62.7-14.5-94.9-14.8  c-0.5,0-9.3,0.1-14.3,0.2v0.1c0,2.1,0.4,4.1,1.2,6.1l13.1-0.2c28.4,0.3,56.5,4.3,83.8,12c-5.2,1.8-10.1,3.4-14.8,5.2  c-21.7-5.1-49.4-7.6-72.2-8c2.2,1.5,4.5,3,6.9,4.6l2.7,1.6c17.7,0.6,35.3,2.6,52.7,6c-5.2,2.2-9.8,4.3-14.4,6.5  c-7.1-1.1-14.1-1.9-21-2.5L97.6,247c29.1-15,81.2-34.2,141.3-35.2c1.3,0,7.7,0,10.9,0h8.5c0.9-2,1.4-4.2,1.5-6.4L253.8,205.4z"
   id="path58"
   style="fill:#f0f0f0;fill-opacity:1" />
</svg>