<?xml version="1.0" encoding="UTF-8" standalone="no"?>
<!-- Generator: Adobe Illustrator 24.3.0, SVG Export Plug-In . SVG Version: 6.00 Build 0)  -->

<svg
   xmlns:dc="http://purl.org/dc/elements/1.1/"
   xmlns:cc="http://creativecommons.org/ns#"
   xmlns:rdf="http://www.w3.org/1999/02/22-rdf-syntax-ns#"
   xmlns:svg="http://www.w3.org/2000/svg"
   xmlns="http://www.w3.org/2000/svg"
   xmlns:sodipodi="http://sodipodi.sourceforge.net/DTD/sodipodi-0.dtd"
   xmlns:inkscape="http://www.inkscape.org/namespaces/inkscape"
   version="1.1"
   id="Layer_1"
   x="0px"
   y="0px"
   viewBox="0 0 43.513224 75.7"
   xml:space="preserve"
   sodipodi:docname="product (logo).svg"
   width="43.513222"
   height="75.699997"
   inkscape:version="0.92.3 (2405546, 2018-03-11)"
   inkscape:export-xdpi="1200"
   inkscape:export-ydpi="1200"><metadata
   id="metadata65"><rdf:RDF><cc:Work
       rdf:about=""><dc:format>image/svg+xml</dc:format><dc:type
         rdf:resource="http://purl.org/dc/dcmitype/StillImage" /><dc:title></dc:title></cc:Work></rdf:RDF></metadata><defs
   id="defs63" /><sodipodi:namedview
   pagecolor="#ffffff"
   bordercolor="#666666"
   borderopacity="1"
   objecttolerance="10"
   gridtolerance="10"
   guidetolerance="10"
   inkscape:pageopacity="0"
   inkscape:pageshadow="2"
   inkscape:window-width="1830"
   inkscape:window-height="1051"
   id="namedview61"
   showgrid="true"
   inkscape:zoom="3.138298"
   inkscape:cx="-11.500228"
   inkscape:cy="38.036436"
   inkscape:window-x="-9"
   inkscape:window-y="-9"
   inkscape:window-maximized="1"
   inkscape:current-layer="Layer_1"
   inkscape:pagecheckerboard="false"
   showguides="false"
   fit-margin-top="0"
   fit-margin-left="0"
   fit-margin-right="0"
   fit-margin-bottom="0"><inkscape:grid
     type="xygrid"
     id="grid902"
     originx="-153.53273"
     originy="-309.4424" /></sodipodi:namedview>
<style
   type="text/css"
   id="style2">
	.st0{fill:#036667;}
	.st1{fill:#F6902F;}
	.st2{fill:none;stroke:#9FCAA8;stroke-width:6.36;stroke-linecap:round;stroke-linejoin:round;}
	.st3{fill:#FFFFFF;}
	.st4{fill:#F7902F;}
	.st5{fill:#C8D459;}
</style>























<path
   style="fill:#000000;fill-opacity:1"
   inkscape:connector-curvature="0"
   class="st5"
   d="m 43.306611,9.7000001 c 0,11.2999999 -8.7,20.6999999 -20,21.3999999 -0.1,-11.3 8.7,-20.7 20,-21.3999999 z M 21.806611,0 c 3.8,4.1000001 5.6,9.6000001 4.8,15.2 -0.1,0.1 -0.2,0.2 -0.3,0.3 -2,2.2 -3.6,4.7 -4.5,7.5 -1,-2.8 -2.6,-5.4 -4.6,-7.5 l -0.5,-0.4 c -0.1,-0.7 -0.1,-1.5 -0.1,-2.2 0,-4.7999999 1.9,-9.3999999 5.2,-12.9 z m -15.7,24.5 c -3.8,-3.9 -5.9,-9.2 -5.9,-14.5999999 11.3,0.5999999 20.1,9.8999999 20.2,21.1999999 -5.5,-0.3 -10.6,-2.7 -14.3,-6.6 z"
   id="path48" /><path
   style="opacity:0.4;fill:#000000;fill-opacity:1"
   inkscape:connector-curvature="0"
   class="st4"
   d="M 43.1,52.2 42.5,49.3 H 24.8 V 44.1 H 40.5 L 40.4,43.8 C 39.6,42.3 38.5,40.8 37.3,39.6 33.6,35.9 28.4,34 21.7,34.1 9.1,34.2 1.6,41.1 0.2,53.9 l -0.1,1.2 h 20.1 v 5.2 H 0 v 0.1 l 0.3,5.4 c 0,0.5 0.1,2 0.1,3.8 7.6,1.8 15.2,3.8 22.7,6.1 6.4,-1.9 13,-3.7 19.9,-5.3 l 0.1,-3.3 c 0,-0.8 0.4,-6.6 0.4,-8.9 0.1,-2.2 -0.4,-6 -0.4,-6 z"
   id="path50" />




</svg>
