<svg version="1" xmlns="http://www.w3.org/2000/svg" width="1333.333" height="1333.333" viewBox="0 0 1000.000000 1000.000000"><path d="M496 28.9c-.8 1.1-3.7 4.6-6.5 7.8-2.7 3.2-6.1 7.4-7.5 9.2-1.4 1.8-3.4 4.5-4.6 5.9-7.6 9.8-27.4 46.1-27.4 50.4 0 .8-.4 1.8-.9 2.3-2 2.3-10.8 32.9-12.6 44-2.4 15.1-3.3 27.3-3.1 45.9.1 19.5.3 20.9 2.1 22.2 9.8 7.1 28.4 30.6 41 52 5.6 9.3 15.3 29.3 18.6 38.1 1.3 3.5 2.6 6.3 2.9 6.3.3 0 1.6-3 2.9-6.8 6.6-18.5 17.9-39.6 31.7-58.8 5.9-8.3 18-23.1 22.5-27.5 3.2-3.1 3.6-4.8 4.5-17.9 1.3-18.6.7-36.2-1.7-51-.6-3.6-1.2-7.4-1.3-8.5-.7-4.6-5.8-24.3-8.2-31.3-6.4-18.8-16.1-38.2-27.3-54.9-7.5-11.2-21.2-28.5-22.8-29-.5-.1-1.5.6-2.3 1.6zM760.8 148.6c-.2.1-3.2.5-6.8.8-15.5 1.3-36.9 5.8-51.5 10.8-3.3 1.1-6.4 2.1-7 2.2-.5.2-2.7 1-4.9 1.9-2.1.9-4.2 1.7-4.6 1.7-.7 0-7.9 3.1-17.9 7.7-2 .9-7.6 3.9-12.6 6.6C592.7 214.7 546.4 272.5 527 341c-2.1 7.4-4.1 14.8-4.4 16.5-.2 1.6-1 5.5-1.6 8.5-.6 3-1.3 7.7-1.6 10.5-.3 2.7-.8 6.1-1 7.5-.3 1.4-.8 9.1-1.1 17.2l-.6 14.7 2.4-.4c1.3-.2 5.3-.6 8.9-.9 3.6-.3 7.4-.8 8.5-1 1.2-.2 4.8-.8 8-1.2 3.3-.4 6.2-.9 6.5-.9 3.5-1 6.9-1.8 14.5-3.6 18.5-4.4 45.3-14.8 61.3-23.8 3.9-2.3 7.6-4.1 8.2-4.1.5 0 1-.5 1-1 0-.6.4-1 1-1 .5 0 4.9-2.7 9.8-5.9 33-22.1 60.1-50.4 81.5-85.1 3.7-6.1 15.1-27.8 15.2-29.1 0-.3 1.1-3 2.4-6 1.3-3 2.7-6.3 3.2-7.4 4.3-10.1 12.8-42 14.4-54 .3-2.8.8-5.9 1-7 .7-3.3 1.6-14.5 2-25.3l.5-10.1-3 .1c-1.6.1-3.1.2-3.2.4zM228.4 163.3c.4 6.9.9 13.6 1.1 14.9.2 1.3.6 4.5 1 7.3 1.9 16.5 8.8 43.1 15.5 60.3 13.6 35.1 32.7 64.1 59.9 91.2 26.4 26.3 52.4 43.8 87.6 59 22.4 9.6 57.8 18 81.5 19.2l5.5.3-.1-5c-.2-14.2-2.5-33.2-5.5-47-1.1-5-2.2-9.9-2.5-11.1-.2-1.1-1.8-6.7-3.4-12.4-18.3-61.6-60.3-116.1-115.6-150.2-9.7-6-27.3-15.1-36.4-18.8-3-1.2-6.8-2.8-8.5-3.5-10.9-4.7-35.7-11.3-51-13.6-3.8-.6-8.1-1.2-9.5-1.5-1.4-.2-6.5-.7-11.4-1.1l-8.8-.6.6 12.6zM474.5 454c-10.3.9-21.1 2-23.4 2.5-1 .2-4.2.6-7.2 1s-5.6.8-5.9 1c-.3.2-2.6.6-5 1-6 .8-22.6 5-32.5 8.1C339.1 486.7 291 527.3 263.4 583c-9.6 19.6-20.3 48.4-22.9 62-.2.8-.8 3.3-1.4 5.6-2.1 7.9-5.6 26.6-6.7 36.4-.3 3-.8 5.8-1 6.1-.2.5-1.4 12.7-1.8 19.9l-.1 2.5 124.5.1c68.5.1 125 .2 125.6.3.7.1 1 10.5 1 32.3l-.1 32.3-125 .1c-68.7.1-125.6.2-126.2.3-1 .1-1.2 2.4-.8 9.3.3 5.1.8 13.6 1 18.8.3 5.2.7 12.6 1 16.5 1.2 19.1 2.4 49.5 2.4 62.2l.1 9.1 5.3 1.3c2.8.7 5.4 1.4 5.7 1.4 3 .6 13.7 3.2 49.2 12.1 42.8 10.6 54.6 13.6 87.3 22.4 15.5 4.1 54.8 15 66.5 18.5 6.9 2 13.2 3.8 14.1 4 1.6.3 9.4 2.7 31.9 9.5 5.2 1.6 12.7 3.8 16.7 5l7.2 2.2 22.3-6.6c12.3-3.5 26.4-7.7 31.3-9.1 5-1.4 10-2.8 11.1-3.1 1.2-.2 5.1-1.3 8.5-2.3 8.2-2.5 64.6-17.9 75.9-20.7.8-.2 17.5-4.3 37-9.3 19.5-4.9 41.6-10.3 49.1-12.1 12.4-2.9 13.7-3.4 13.6-5.3-.1-3 1.4-47.9 1.8-54.7.2-3 .6-11.6 1-19 .3-7.4.8-15.5 1-18 2.5-30.1 2.5-92.4 0-108.3-.2-1.2-.6-5.6-.9-9.7-.4-4.1-.9-9.1-1.2-11-1-6.1-7.4-37.9-8-39.5-.5-1.3-12.7-1.5-111-1.5H538v-64.9h97.7c53.7-.1 97.8-.3 98.1-.6 1.5-1.5-15.9-28.6-26.3-41.1-13.7-16.3-34.4-34.4-51.9-45.3-26.8-16.7-66.2-30.5-98.8-34.5-2.7-.3-6.9-.9-9.5-1.2-2.7-.4-6.4-.8-8.3-1-6.5-.8-56.5-1-64.5-.4z"/></svg>